# xmcd
#
# Track frame offsets:
#        150
#        19798
#        39174
#        58854
#        78486
#
# Disc length: 1302 seconds
#
# Revision: 0
# Processed by: cddbd v1.5.1PL0 Copyright (c) Steve Scherf et al.
# Submitted via: ExactAudioCopy v0.95a5
#
DISCID=34051405
DTITLE=move - DOG FIGHT
DYEAR=2004
DGENRE=Pop
TTITLE0=DOGFIGHT
TTITLE1=Fall iNTo DozE
TTITLE2=DOGFIGHT(EnglishVersion)
TTITLE3=DOGFIGHT(instrumental)
TTITLE4=Fall iNTo DozE(instrumental)
EXTD=
EXTT0=
EXTT1=
EXTT2=
EXTT3=
EXTT4=
PLAYORDER=
